PathFileType	4	(X/Y/Z)	/Users/itak/Documents/Research/Walk-IL/dataset/trc/00548_00009.trc
DataRate	CameraRate	NumFrames	NumMarkers	Units	OrigDataRate	OrigDataStartFrame	OrigNumFrames
100.000000	100.000000	4	53	mm	100.000000	57	457
Frame#	Time	RPSI			LPSI			L3			STRN			T10			C7			CLAV			RBAK			LBAK			LSHO			LUPA			LAEL			LAOL			LWTS			LWPS			LFRA			LHPS			LHTS			RSHO			RUPA			RAEL			RAOL			RWTS			RWPS			RFRA			RIFD			RHTS			RHPS			RBHD			LFHD			RFHD			LBHD			LHIP			RHIP			RASI			LASI			LKNE			LTHI			LANK			LTIP			LTOE			LMT1			LMT5			LHEE			RKNE			RTHI			RANK			RTIP			RTOE			RMT1			RMT5			RHEE			LIFD			
		X1	Y1	Z1	X2	Y2	Z2	X3	Y3	Z3	X4	Y4	Z4	X5	Y5	Z5	X6	Y6	Z6	X7	Y7	Z7	X8	Y8	Z8	X9	Y9	Z9	X10	Y10	Z10	X11	Y11	Z11	X12	Y12	Z12	X13	Y13	Z13	X14	Y14	Z14	X15	Y15	Z15	X16	Y16	Z16	X17	Y17	Z17	X18	Y18	Z18	X19	Y19	Z19	X20	Y20	Z20	X21	Y21	Z21	X22	Y22	Z22	X23	Y23	Z23	X24	Y24	Z24	X25	Y25	Z25	X26	Y26	Z26	X27	Y27	Z27	X28	Y28	Z28	X29	Y29	Z29	X30	Y30	Z30	X31	Y31	Z31	X32	Y32	Z32	X33	Y33	Z33	X34	Y34	Z34	X35	Y35	Z35	X36	Y36	Z36	X37	Y37	Z37	X38	Y38	Z38	X39	Y39	Z39	X40	Y40	Z40	X41	Y41	Z41	X42	Y42	Z42	X43	Y43	Z43	X44	Y44	Z44	X45	Y45	Z45	X46	Y46	Z46	X47	Y47	Z47	X48	Y48	Z48	X49	Y49	Z49	X50	Y50	Z50	X51	Y51	Z51	X52	Y52	Z52	X53	Y53	Z53	

58	0.5700000000000001	-1013.362731933594	1017.093811035156	315.7813110351562	-1000.182434082031	1020.822570800781	182.5736236572266	-1003.694091796875	1109.431396484375	245.5510864257812	-774.1878051757812	1294.622802734375	254.3025360107422	-1015.252014160156	1234.986694335938	244.5123596191406	-965.1358642578125	1507.519287109375	260.2742004394531	-791.9469604492188	1405.631103515625	254.49169921875	-1042.173706054688	1383.568725585938	341.1245422363281	-996.9744873046875	1456.564697265625	167.0096740722656	-895.9012451171875	1482.815185546875	90.43224334716797	-901.4525756835938	1356.242065429688	9.78307056427002	-871.5466918945312	1133.261352539062	-5.328958988189697	-963.9201049804688	1124.206665039062	34.59978866577148	-783.0280151367188	891.7149047851562	55.3010368347168	-817.5631713867188	868.3587646484375	-21.07501792907715	-847.2835083007812	1047.238159179688	-8.260054588317871	-809.9684448242188	808.2586059570312	-11.15676403045654	-764.499267578125	814.0768432617188	39.14567565917969	-912.8098754882812	1467.473999023438	416.1785888671875	-935.14111328125	1402.873046875	483.0907897949219	-933.9920654296875	1112.237426757812	526.1640625	-988.1862182617188	1094.985717773438	498.8755493164062	-802.23193359375	889.70703125	482.5932312011719	-845.4788818359375	870.4174194335938	550.9000854492188	-924.1867065429688	1056.728271484375	534.7164916992188	-792.7498168945312	715.4490966796875	490.1295776367188	-775.657470703125	798.3283081054688	496.2583618164062	-829.6866455078125	794.7626342773438	546.6082153320312	-892.7778930664062	1688.643188476562	322.6025085449219	-721.393310546875	1705.928588867188	206.5148162841797	-755.3616333007812	1706.36328125	346.4156799316406	-846.60546875	1686.512573242188	163.1899261474609	-852.2604370117188	932.0202026367188	69.39920806884766	-902.701171875	941.9839477539062	448.81884765625	-810.083984375	970.25634765625	396.05126953125	-788.2297973632812	964.4508666992188	118.8336181640625	-855.6932373046875	494.6575927734375	130.8171234130859	-845.845458984375	659.424560546875	89.45425415039062	-936.4945068359375	31.9738941192627	142.0416412353516	-920.012451171875	250.8256072998047	125.109733581543	-731.83154296875	38.63277053833008	213.50048828125	-806.2393798828125	40.63487243652344	244.7336730957031	-814.2196655273438	34.94540405273438	136.9683837890625	-1009.622863769531	36.18814849853516	192.1629333496094	-893.0526123046875	497.111328125	414.8250122070312	-868.2635498046875	787.2586669921875	451.0906066894531	-994.99072265625	36.13431549072266	411.115478515625	-901.6868286132812	354.9346923828125	407.8559875488281	-771.5065307617188	38.2664680480957	388.3272399902344	-831.4186401367188	38.35438919067383	341.9314880371094	-863.1100463867188	36.68936157226562	441.3065490722656	-1045.04833984375	29.43513298034668	351.31689453125	-782.1829833984375	721.5357055664062	50.91019439697266	
59	0.58	-1013.2080078125	1017.190673828125	315.0295104980469	-1000.00341796875	1020.92138671875	181.7809600830078	-1003.448364257812	1109.605224609375	244.7811584472656	-773.679443359375	1294.500610351562	253.5592041015625	-1014.813415527344	1235.1572265625	243.7115631103516	-964.31103515625	1507.643310546875	259.5011596679688	-791.3297119140625	1405.432983398438	253.7278747558594	-1041.537231445312	1383.79833984375	340.3242492675781	-996.1922607421875	1456.755737304688	166.2146453857422	-895.0700073242188	1482.873779296875	89.64231109619141	-900.814208984375	1356.294067382812	8.972113609313965	-871.1876831054688	1133.274536132812	-6.041980266571045	-963.6655883789062	1124.36962890625	33.76558303833008	-783.1687622070312	891.6060180664062	54.78121566772461	-817.6161499023438	868.3314819335938	-21.65553092956543	-847.052001953125	1047.236938476562	-8.926423072814941	-810.1452026367188	808.1776123046875	-11.66214275360107	-764.6371459960938	814.06494140625	38.5458869934082	-912.0628051757812	1467.525512695312	415.3730773925781	-934.4739379882812	1402.970336914062	482.3042602539062	-933.7116088867188	1112.337280273438	525.49365234375	-987.91552734375	1095.13232421875	498.1986389160156	-802.1158447265625	889.6978759765625	482.0193786621094	-845.4671630859375	870.4388427734375	550.3527221679688	-923.999755859375	1056.865844726562	534.1051025390625	-792.8270874023438	715.4174194335938	489.6790466308594	-775.6107788085938	798.3163452148438	495.7925109863281	-829.72021484375	794.7942504882812	546.0755004882812	-891.6134643554688	1688.615966796875	321.8748474121094	-720.2433471679688	1705.6435546875	205.6938018798828	-754.083984375	1706.122314453125	345.6056518554688	-845.5512084960938	1686.420166015625	162.4498901367188	-852.3375854492188	932.0797119140625	68.49303436279297	-902.563720703125	941.9845581054688	448.0757446289062	-810.0028686523438	970.244873046875	395.3457336425781	-788.0582275390625	964.4033203125	117.9986343383789	-855.5543823242188	494.570556640625	130.5090942382812	-845.6521606445312	659.3610229492188	89.02406311035156	-936.506103515625	31.94877243041992	142.0319671630859	-919.9923706054688	250.7242736816406	124.9186248779297	-731.8751220703125	38.65519332885742	213.4828338623047	-806.24462890625	40.6529655456543	244.7299041748047	-814.2255249023438	34.95271682739258	136.9690399169922	-1009.637878417969	36.18095397949219	192.1658782958984	-892.8342895507812	497.1251831054688	414.3719482421875	-868.27783203125	787.2876586914062	450.5000915527344	-995.0015258789062	36.14074325561523	411.1243286132812	-901.568115234375	354.9427490234375	407.6192321777344	-771.5106201171875	38.27300643920898	388.3163452148438	-831.4266357421875	38.3536376953125	341.9361572265625	-863.1096801757812	36.7035026550293	441.2864990234375	-1045.0673828125	29.43341064453125	351.3242492675781	-782.31396484375	721.4497680664062	50.31418609619141	
60	0.59	-1013.033203125	1017.286926269531	314.2519226074219	-999.8074951171875	1021.022155761719	180.9703674316406	-1003.188354492188	1109.783569335938	243.9747924804688	-773.1593017578125	1294.357299804688	252.7853851318359	-1014.355712890625	1235.32958984375	242.8746490478516	-963.4566650390625	1507.771728515625	258.6942749023438	-790.6907958984375	1405.230590820312	252.9480133056641	-1040.885498046875	1384.02685546875	339.4895324707031	-995.3837890625	1456.9560546875	165.3844299316406	-894.212646484375	1482.932739257812	88.81338500976562	-900.1442260742188	1356.358154296875	8.121238708496094	-870.810546875	1133.2958984375	-6.790755748748779	-963.3926391601562	1124.55615234375	32.88978958129883	-783.3687133789062	891.4638671875	54.2812614440918	-817.6685180664062	868.2796020507812	-22.25312423706055	-846.7996215820312	1047.233764648438	-9.612545013427734	-810.3179931640625	808.10400390625	-12.18594264984131	-764.748291015625	814.0648803710938	37.95708084106445	-911.2900390625	1467.600708007812	414.5584411621094	-933.7841796875	1403.082275390625	481.4941101074219	-933.4287719726562	1112.439331054688	524.789794921875	-987.6514282226562	1095.292114257812	497.4891052246094	-801.9909057617188	889.716796875	481.4364624023438	-845.4578247070312	870.4727172851562	549.784912109375	-923.8060302734375	1057.01806640625	533.4656372070312	-792.908447265625	715.4112548828125	489.2335815429688	-775.5756225585938	798.3222045898438	495.3305053710938	-829.75244140625	794.840576171875	545.5272827148438	-890.4345092773438	1688.588623046875	321.108154296875	-719.080322265625	1705.362915039062	204.8285369873047	-752.7685546875	1705.8916015625	344.7554016113281	-844.4807739257812	1686.326293945312	161.6790924072266	-852.3344116210938	932.06689453125	67.61769866943359	-902.3917236328125	941.9882202148438	447.2926635742188	-809.9135131835938	970.2504272460938	394.6238098144531	-787.890869140625	964.3335571289062	117.1844253540039	-855.4061889648438	494.4856567382812	130.1658172607422	-845.4828491210938	659.2664184570312	88.57430267333984	-936.520263671875	31.91819763183594	142.0212707519531	-919.9580688476562	250.6119995117188	124.7091445922852	-731.920166015625	38.67889404296875	213.4686737060547	-806.2510986328125	40.67131805419922	244.7250671386719	-814.2299194335938	34.95946502685547	136.9703369140625	-1009.654296875	36.1717643737793	192.1681365966797	-892.5922241210938	497.1477966308594	413.9060363769531	-868.2587890625	787.3212280273438	449.8866882324219	-995.0149536132812	36.14767456054688	411.1337890625	-901.4189453125	354.9497680664062	407.3822631835938	-771.515869140625	38.280517578125	388.306884765625	-831.4353637695312	38.35074996948242	341.9395446777344	-863.10693359375	36.71659469604492	441.2651672363281	-1045.086303710938	29.43099021911621	351.3299560546875	-782.45849609375	721.3644409179688	49.73207092285156	
61	0.6	-1012.836486816406	1017.379455566406	313.446044921875	-999.5945434570312	1021.120666503906	180.1426544189453	-1002.912963867188	1109.967529296875	243.1328582763672	-772.6273803710938	1294.191650390625	251.9793548583984	-1013.879943847656	1235.504150390625	242.0015258789062	-962.5708618164062	1507.90234375	257.8506774902344	-790.0291137695312	1405.033081054688	252.1412048339844	-1040.216064453125	1384.255126953125	338.6206970214844	-994.55029296875	1457.161865234375	164.5188140869141	-893.32568359375	1482.98779296875	87.94930267333984	-899.4398803710938	1356.430908203125	7.23098611831665	-870.4169921875	1133.321044921875	-7.577146530151367	-963.100830078125	1124.76025390625	31.97122192382812	-783.6199340820312	891.2916870117188	53.79446792602539	-817.7122802734375	868.1932983398438	-22.86396980285645	-846.5264892578125	1047.226928710938	-10.32199764251709	-810.4849243164062	808.0263061523438	-12.73020076751709	-764.8584594726562	814.0513916015625	37.39730834960938	-910.4904174804688	1467.697143554688	413.7295532226562	-933.0718994140625	1403.2080078125	480.6588745117188	-933.146728515625	1112.548095703125	524.0541381835938	-987.3961791992188	1095.469116210938	496.7478942871094	-801.8799438476562	889.758056640625	480.8501586914062	-845.4529418945312	870.5208740234375	549.196533203125	-923.6013793945312	1057.179809570312	532.7881469726562	-792.9895629882812	715.427001953125	488.7886657714844	-775.5662841796875	798.3419799804688	494.8651123046875	-829.78857421875	794.8998413085938	544.9631958007812	-889.2361450195312	1688.562255859375	320.3072509765625	-717.9078369140625	1705.086547851562	203.9171447753906	-751.4261474609375	1705.675415039062	343.8647155761719	-843.39599609375	1686.23095703125	160.8763275146484	-852.2472534179688	931.9841918945312	66.77506256103516	-902.1834716796875	941.9932861328125	446.4607849121094	-809.8096923828125	970.265380859375	393.8766174316406	-787.7211303710938	964.2510375976562	116.4020233154297	-855.241455078125	494.4062194824219	129.7861480712891	-845.3392944335938	659.1295166015625	88.1029052734375	-936.536865234375	31.88115119934082	142.0087432861328	-919.8978881835938	250.4944458007812	124.4863052368164	-731.9635620117188	38.7023811340332	213.4614105224609	-806.2605590820312	40.68777465820312	244.7203674316406	-814.2333374023438	34.96628189086914	136.9741058349609	-1009.670837402344	36.15970993041992	192.1671600341797	-892.333251953125	497.1781921386719	413.4422607421875	-868.1927490234375	787.3584594726562	449.2369689941406	-995.0347900390625	36.15597534179688	411.1463928222656	-901.234619140625	354.9512329101562	407.1395568847656	-771.5225219726562	38.29001617431641	388.2987060546875	-831.4443969726562	38.34585189819336	341.9413757324219	-863.1016845703125	36.72848892211914	441.2424621582031	-1045.10498046875	29.42618370056152	351.3350830078125	-782.6753540039062	721.2476196289062	49.18307113647461	
